:SAMPLES-PER-SECOND 30
:FRAME-RANGE 1-2091
:FULLY-SPECIFIED
:DEGREES
131
root  -0.891079 39.0529 -37.6225 -0.721781 12.9406 5.83687
RightUpLeg  -24.6092 -2.0867 -5.34708
RightLeg  59.2922 -2.98687 -5.88895
RightFoot  -5.38336 -0.195546 3.05249
RightToes  5.38607e-012 1.2921e-014 -6.02303e-014
Spine  -5.63934 -3.1654 -8.14363
Spine1  8.3395 -3.32558 -2.05489
HEad  20.0321 -15.2317 -0.589713
LeftShoulder1  1.2994 -1.47832 -21.0165
LeftArm  -3.49953 3.66194 -50.2098
LeftForeArm  34.4566 2.19725 -12.2252
LeftHand  -0.017486 5.55816 5.02794
RightShoulder  1.04733 -0.313395 28.9566
RightArm  -24.8836 1.57173 52.9647
RightForeArm  71.9997 -5.27936 3.83408
RightHand  0.486361 -8.34576 -19.5843
LeftUpLeg  -4.48535 1.79698 -7.33254
LeftLeg  19.0689 -1.85307 0.0617149
LeftFoot  -12.4247 0.0956812 2.22503
LeftToes  -7.20997e-011 3.75522e-011 -2.80735e-011
132
root  -0.600632 39.1021 -36.3239 -0.865234 12.9166 5.08368
RightUpLeg  -25.292 -2.83476 -3.56803
RightLeg  49.2936 -5.48959 -7.12794
RightFoot  -5.9711 -0.134637 2.00487
RightToes  5.38607e-012 1.2921e-014 -6.02303e-014
Spine  -5.70701 -3.7851 -7.69524
Spine1  7.9505 -3.92436 -1.17889
HEad  19.7129 -15.7877 -0.51988
LeftShoulder1  1.39831 -1.91376 -20.6223
LeftArm  -1.71697 0.625839 -49.3567
LeftForeArm  33.2452 0.879372 -12.7201
LeftHand  -0.0320742 5.178 4.90889
RightShoulder  0.962208 -0.57246 29.1424
RightArm  -28.5499 -0.619133 51.7442
RightForeArm  74.4678 -4.81976 1.68463
RightHand  0.579317 -8.96157 -19.2547
LeftUpLeg  -1.966 2.10051 -6.52676
LeftLeg  18.5455 -2.08782 0.214046
LeftFoot  -13.9014 0.135951 2.34759
LeftToes  -7.20997e-011 3.75522e-011 -2.80735e-011
133
root  -0.326664 39.1727 -35.0315 -0.795983 12.5178 4.42051
RightUpLeg  -24.5895 -3.69315 -1.64585
RightLeg  36.2477 -9.29388 -7.4889
RightFoot  -5.6053 -0.135188 1.93727
RightToes  5.38607e-012 1.2921e-014 -6.02303e-014
Spine  -6.06501 -4.28169 -7.05991
Spine1  7.79571 -4.3793 -0.238911
HEad  19.5023 -16.1567 -0.339562
LeftShoulder1  1.41113 -2.05077 -20.1454
LeftArm  -1.28885 -1.83439 -48.597
LeftForeArm  33.3967 -0.278501 -12.6711
LeftHand  -0.0326127 5.16172 4.82987
RightShoulder  0.841626 -0.939375 29.4755
RightArm  -31.1782 -2.43901 50.0406
RightForeArm  75.277 -4.51322 0.0748673
RightHand  0.6216 -9.49584 -18.0343
LeftUpLeg  0.803221 2.09485 -5.8798
LeftLeg  16.9592 -1.66083 0.612643
LeftFoot  -14.8931 0.149085 1.92433
LeftToes  -7.20997e-011 3.75522e-011 -2.80735e-011
134
root  -0.081508 39.206 -33.7231 -0.512667 11.871 3.83905
RightUpLeg  -22.6497 -5.85189 0.893561
RightLeg  21.289 -13.9618 -6.1189
RightFoot  -4.683 -0.125065 1.602
RightToes  5.38607e-012 1.2921e-014 -6.02303e-014
Spine  -6.95122 -4.64186 -6.12707
Spine1  8.20068 -4.72116 0.43489
HEad  19.0342 -16.5585 -0.191326
LeftShoulder1  1.41902 -2.16621 -19.7042
LeftArm  -1.04185 -3.86801 -47.9491
LeftForeArm  32.6258 -1.02906 -12.6138
LeftHand  -0.0284379 5.014 4.89857
RightShoulder  0.801845 -1.0465 29.384
RightArm  -33.5342 -4.65397 48.6925
RightForeArm  76.5037 -4.21023 -1.39489
RightHand  0.646755 -9.76608 -17.6195
LeftUpLeg  3.48504 1.97072 -5.39505
LeftLeg  15.1309 -0.619138 1.14323
LeftFoot  -15.8084 0.193169 2.51851
LeftToes  -7.20997e-011 3.75522e-011 -2.80735e-011
135
root  0.100292 39.081 -32.3149 -0.13049 11.4089 3.8862
RightUpLeg  -20.1086 -6.16892 0.858659
RightLeg  7.45572 -19.6629 -0.0224204
RightFoot  -5.154 -0.111155 1.40802
RightToes  5.38607e-012 1.2921e-014 -6.02303e-014
Spine  -7.88103 -4.81386 -5.72607
Spine1  8.62683 -4.88128 0.811064
HEad  18.5437 -17.147 -0.337868
LeftShoulder1  1.45126 -2.31764 -19.5706
LeftArm  -0.602398 -5.63376 -47.2086
LeftForeArm  32.0886 -1.48847 -12.6563
LeftHand  -0.0382239 4.97798 4.37256
RightShoulder  0.66669 -1.41147 29.0143
RightArm  -34.8884 -7.40542 47.3414
RightForeArm  75.6869 -4.12432 -2.08818
RightHand  0.60231 -9.63925 -16.9747
LeftUpLeg  5.87315 1.91395 -5.2757
LeftLeg  14.3817 -0.446975 1.19143
LeftFoot  -17.0591 0.1438 0.829782
LeftToes  -7.20997e-011 3.75522e-011 -2.80735e-011
136
root  0.266769 38.9508 -30.8439 0.419878 10.4222 4.51892
RightUpLeg  -17.9868 -1.0164 -0.756509
RightLeg  -2.95946 -28.1073 5.13259
RightFoot  -5.55279 -0.122657 1.67909
RightToes  5.38607e-012 1.2921e-014 -6.02303e-014
Spine  -9.06203 -4.92845 -5.9925
Spine1  8.99851 -4.92908 0.854018
HEad  18.1305 -17.5784 -0.495432
LeftShoulder1  1.39287 -2.10508 -19.4992
LeftArm  -0.164148 -6.92433 -46.3856
LeftForeArm  31.4698 -1.73199 -12.7288
LeftHand  -0.0415687 4.91381 4.77134
RightShoulder  0.552343 -1.74584 29.1566
RightArm  -34.8412 -9.68452 45.4446
RightForeArm  74.4178 -4.19856 -1.96024
RightHand  0.545307 -9.31932 -16.6857
LeftUpLeg  7.32381 1.69454 -5.87041
LeftLeg  15.4201 0.193655 1.31377
LeftFoot  -17.4735 0.0332158 -1.33602
LeftToes  -7.20997e-011 3.75522e-011 -2.80735e-011
137
root  0.417695 38.6465 -29.3649 0.61717 9.47542 5.22699
RightUpLeg  -17.5099 0.540431 -0.118153
RightLeg  -3.36742 -28.3186 3.77435
RightFoot  -7.8641 -0.194722 4.65045
RightToes  5.38607e-012 1.2921e-014 -6.02303e-014
Spine  -9.20955 -5.24428 -6.51408
Spine1  8.62793 -5.23049 0.974428
HEad  17.6901 -17.6415 -0.58503
LeftShoulder1  1.30535 -1.78382 -19.3958
LeftArm  -0.210207 -6.87351 -45.6279
LeftForeArm  31.2032 -2.28461 -12.6264
LeftHand  -0.0422835 4.89115 4.73831
RightShoulder  0.541907 -1.77192 29.0672
RightArm  -34.7815 -11.5432 43.9838
RightForeArm  72.8961 -4.27546 -1.87171
RightHand  0.505728 -9.31482 -15.6082
LeftUpLeg  8.53223 1.32805 -6.54715
LeftLeg  17.889 1.02019 1.29993
LeftFoot  -18.6763 -0.081973 -3.02515
LeftToes  -7.20997e-011 3.75522e-011 -2.80735e-011
138
root  0.566821 38.5727 -27.9816 0.426229 8.22431 4.54426
RightUpLeg  -18.7804 -0.291251 1.34471
RightLeg  2.72543 -25.7891 2.42565
RightFoot  -5.25634 0.148643 -3.46324
RightToes  5.38607e-012 1.2921e-014 -6.02303e-014
Spine  -8.96042 -5.32785 -4.69525
Spine1  8.64338 -5.54577 1.24466
HEad  17.0468 -17.5209 -1.1171
LeftShoulder1  1.28371 -1.59719 -19.9696
LeftArm  0.0627812 -5.79978 -44.5733
LeftForeArm  30.4507 -3.118 -12.5376
LeftHand  -0.0398272 4.95749 4.7144
RightShoulder  0.454971 -1.98983 28.1953
RightArm  -35.9092 -13.1155 43.5858
RightForeArm  71.2729 -4.23484 -2.47871
RightHand  0.458604 -8.97282 -15.5589
LeftUpLeg  9.89529 -0.105519 -6.21894
LeftLeg  19.8837 2.68654 1.52012
LeftFoot  -18.2792 -0.251713 -5.95472
LeftToes  -7.20997e-011 3.75522e-011 -2.80735e-011
139
root  0.663776 38.6502 -26.5429 -0.0841384 7.33464 2.75816
RightUpLeg  -19.0904 1.62096 3.86162
RightLeg  7.19374 -27.5599 -1.02508
RightFoot  0.810912 0.569546 -5.29071
RightToes  5.38607e-012 1.2921e-014 -6.02303e-014
Spine  -9.13132 -5.38373 -1.74089
Spine1  9.35087 -6.00017 1.756
HEad  16.4794 -17.9753 -1.91716
LeftShoulder1  1.33147 -1.65138 -20.6954
LeftArm  -0.150284 -4.26099 -43.9053
LeftForeArm  30.1515 -3.12745 -12.511
LeftHand  -0.0488866 4.73183 4.92125
RightShoulder  0.207437 -2.71301 27.9651
RightArm  -35.8958 -13.9486 42.4311
RightForeArm  68.6987 -4.34322 -2.42988
RightHand  0.375684 -8.42533 -15.1888
LeftUpLeg  9.53801 1.1206 -3.34182
LeftLeg  25.3143 0.56368 0.631598
LeftFoot  -15.6801 -0.300232 -10.3774
LeftToes  -7.20997e-011 3.75522e-011 -2.80735e-011
140
root  0.666421 38.5895 -25.1242 -0.569211 6.14343 0.98206
RightUpLeg  -19.2461 -0.358366 6.20929
RightLeg  12.4236 -24.6458 -1.57606
RightFoot  0.301902 0.764412 -7.45986
RightToes  5.38607e-012 1.2921e-014 -6.02303e-014
Spine  -8.54257 -5.46854 0.518135
Spine1  9.05293 -6.25566 2.50809
HEad  16.7972 -19.4885 -2.60161
LeftShoulder1  1.33491 -1.61534 -20.9801
LeftArm  -1.25103 -2.26171 -44.3059
LeftForeArm  30.5044 -1.9938 -12.4511
LeftHand  -0.0392252 4.99778 5.0703
RightShoulder  0.441162 -2.01058 27.6446
RightArm  -34.6264 -14.9595 40.6915
RightForeArm  63.4811 -4.67464 -1.62758
RightHand  0.249338 -7.51378 -14.7466
LeftUpLeg  6.13819 4.15463 1.0302
LeftLeg  35.7841 -3.60035 -2.42139
LeftFoot  -9.56318 0.303431 -15.7933
LeftToes  -7.20997e-011 3.75522e-011 -2.80735e-011
141
root  0.598901 38.5566 -23.8486 -0.853281 4.35605 -0.511602
RightUpLeg  -18.4046 -1.28635 8.96406
RightLeg  15.2309 -21.8637 -2.48961
RightFoot  -1.38443 0.782897 -9.06698
RightToes  5.38607e-012 1.2921e-014 -6.02303e-014
Spine  -7.48192 -5.50902 1.87442
Spine1  8.40373 -6.41277 3.43234
HEad  17.3862 -21.7319 -2.67474
LeftShoulder1  1.25486 -1.38219 -20.5958
LeftArm  -2.68118 -0.101456 -45.518
LeftForeArm  30.6299 -0.743818 -12.185
LeftHand  -0.0414989 4.86574 4.256
RightShoulder  0.46222 -1.93363 27.2798
RightArm  -35.4172 -14.4164 40.2576
RightForeArm  59.7964 -4.71239 -2.14331
RightHand  0.140557 -6.70123 -14.1621
LeftUpLeg  0.552277 5.35392 4.53094
LeftLeg  47.6485 -4.82687 -5.23005
LeftFoot  0.395469 2.06254 -19.916
LeftToes  -7.20997e-011 3.75522e-011 -2.80735e-011
142
root  0.535323 38.5063 -22.6718 -1.23847 2.064 -1.14183
RightUpLeg  -17.2616 -1.35038 10.6074
RightLeg  17.8827 -19.7865 -3.33231
RightFoot  -3.64794 0.617588 -9.51987
RightToes  5.38607e-012 1.2921e-014 -6.02303e-014
Spine  -6.67752 -5.55208 2.56259
Spine1  8.7798 -6.33738 3.98541
HEad  17.7167 -24.4205 -1.87126
LeftShoulder1  1.26352 -1.41986 -20.5637
LeftArm  -2.41789 1.75405 -45.7764
LeftForeArm  29.9764 -0.0496338 -12.3684
LeftHand  -0.041819 4.78565 3.72881
RightShoulder  0.473222 -1.90483 27.3899
RightArm  -35.6208 -12.7103 39.9785
RightForeArm  55.3298 -4.82637 -2.31232
RightHand  0.104342 -6.40793 -14.0441
LeftUpLeg  -5.27441 5.06542 5.95343
LeftLeg  57.1428 -4.38378 -6.77218
LeftFoot  13.6348 4.28836 -19.58
LeftToes  -7.20997e-011 3.75522e-011 -2.80735e-011
